<?xml version="1.0" encoding="UTF-8"?>
<svg xmlns="http://www.w3.org/2000/svg" viewBox="0 0 236.15 108.78"><defs><clipPath id="clippath"><path class="cls-4" d="M169.19 23.15s7.27 2.73 11.94 1.67c0 0 5.09-1.28 8.82-10.47 0 0 .57-1.44.2-1.7 0 0-.26-.19-1.09.7 0 0-.79 1.06-1.41 1.25-.62.19-1.08.38-3.13-.18s-4.61-.31-5.52.07c0 0-2.03.69-4.55 2.87-2.94 2.55-5.24 5.78-5.24 5.78Z"/></clipPath><clipPath id="clippath-1"><path class="cls-4" d="M169.19 23.22s7.61-1.54 11.01-4.91c0 0 3.64-3.78 1.93-13.55 0 0-.28-1.52-.73-1.55 0 0-.32-.02-.55 1.18 0 0-.11 1.32-.53 1.81-.42.49-.71.89-2.75 1.51-2.04.61-4.07 2.18-4.65 2.99 0 0-1.35 1.65-2.34 4.85-1.14 3.72-1.39 7.68-1.39 7.68Z"/></clipPath><clipPath id="clippath-2"><path class="cls-4" d="M169.19 23.22s4.84-6.07 5.28-10.83c0 0 .36-5.24-7.23-11.62 0 0-1.19-.98-1.56-.71 0 0-.26.19.33 1.26 0 0 .76 1.08.76 1.73 0 .65.03 1.14-1.14 2.92s-1.71 4.29-1.64 5.27c0 0 .03 2.14 1.33 5.21 1.51 3.58 3.88 6.77 3.88 6.77Z"/></clipPath><clipPath id="clippath-3"><path class="cls-4" d="M169.18 23.22s.07-7.77-2.51-11.79c0 0-2.94-4.35-12.85-4.71 0 0-1.55-.04-1.66.4 0 0-.09.31 1.03.79 0 0 1.27.38 1.66.9.39.52.72.88.9 3 .18 2.12 1.29 4.43 1.95 5.17 0 0 1.34 1.67 4.26 3.29 3.4 1.89 7.22 2.95 7.22 2.95Z"/></clipPath><clipPath id="clippath-4"><path class="cls-4" d="M169.18 23.22s-4.5-6.33-8.96-8.06c0 0-4.94-1.79-13.17 3.75 0 0-1.27.87-1.11 1.3 0 0 .11.3 1.3.03 0 0 1.25-.44 1.87-.25.62.19 1.11.29 2.5 1.9s3.65 2.83 4.62 3.03c0 0 2.06.56 5.38.16 3.86-.47 7.58-1.86 7.58-1.86Z"/></clipPath><style>.cls-4{fill:none}.cls-29,.cls-30{fill:#25368b}.cls-41{fill:#d05680}.cls-46{fill:#ee7d00}.cls-87{fill:#e3191a}.cls-30{fill-rule:evenodd}.cls-226{fill:#007f33}.cls-251{fill:#0096d7}</style></defs><path class="cls-87" d="M169.19 23.15s7.27 2.73 11.94 1.67c0 0 5.09-1.28 8.82-10.47 0 0 .57-1.44.2-1.7 0 0-.26-.19-1.09.7 0 0-.79 1.06-1.41 1.25-.62.19-1.08.38-3.13-.18s-4.61-.31-5.52.07c0 0-2.03.69-4.55 2.87-2.94 2.55-5.24 5.78-5.24 5.78Z"/><g style="clip-path:url(#clippath)"><path class="cls-87" d="M186.39 15.49c1.49 1.29.89 3.95-1.33 5.95-2.23 2-5.24 2.57-6.73 1.28-1.49-1.29-.89-3.95 1.33-5.95 2.23-2 5.24-2.57 6.73-1.28Z"/><path d="M178.39 22.67c-1.47-1.27-.88-3.89 1.31-5.86 2.19-1.97 5.16-2.53 6.63-1.27 1.47 1.27.88 3.89-1.31 5.86-2.19 1.97-5.16 2.53-6.63 1.27Z" style="fill:#e3201b"/><path d="M178.45 22.61c-1.44-1.25-.87-3.83 1.29-5.77 2.16-1.94 5.08-2.5 6.52-1.25 1.44 1.25.87 3.83-1.29 5.77-2.16 1.94-5.08 2.5-6.52 1.25Z" style="fill:#e4261e"/><path d="M178.51 22.56c-1.42-1.23-.85-3.77 1.27-5.68 2.12-1.91 5-2.46 6.42-1.23s.85 3.77-1.27 5.68c-2.12 1.91-5 2.46-6.42 1.23Z" style="fill:#e42a20"/><path d="M178.58 22.5c-1.4-1.21-.84-3.71 1.25-5.59s4.92-2.42 6.32-1.21c1.4 1.21.84 3.71-1.25 5.59s-4.92 2.42-6.32 1.21Z" style="fill:#e52f22"/><path d="M178.64 22.45c-1.38-1.19-.83-3.65 1.23-5.5 2.05-1.85 4.84-2.38 6.21-1.19 1.38 1.19.83 3.65-1.23 5.5-2.05 1.85-4.84 2.38-6.21 1.19Z" style="fill:#e53425"/><path d="M178.7 22.39c-1.35-1.17-.82-3.59 1.2-5.41 2.02-1.82 4.76-2.34 6.11-1.17 1.35 1.17.82 3.59-1.2 5.41-2.02 1.82-4.76 2.34-6.11 1.17Z" style="fill:#e63727"/><path d="M178.77 22.34c-1.33-1.15-.8-3.53 1.18-5.31 1.99-1.79 4.68-2.3 6.01-1.16 1.33 1.15.8 3.53-1.18 5.32-1.99 1.79-4.67 2.3-6.01 1.16Z" style="fill:#e63b29"/><path d="M178.83 22.28c-1.31-1.13-.79-3.47 1.16-5.22 1.95-1.76 4.59-2.27 5.9-1.14 1.31 1.13.79 3.47-1.16 5.22-1.95 1.76-4.59 2.27-5.9 1.14Z" style="fill:#e63f2c"/><path d="M178.89 22.23c-1.29-1.11-.78-3.41 1.14-5.13 1.92-1.73 4.51-2.23 5.8-1.12 1.29 1.11.78 3.41-1.14 5.13-1.92 1.73-4.51 2.23-5.8 1.12Z" style="fill:#e7432e"/><path d="M178.96 22.17c-1.26-1.09-.76-3.35 1.12-5.04 1.88-1.7 4.43-2.19 5.7-1.1 1.26 1.09.76 3.35-1.12 5.04-1.88 1.7-4.43 2.19-5.7 1.1Z" style="fill:#e84831"/><path d="M179.02 22.12c-1.24-1.07-.75-3.29 1.1-4.95 1.85-1.67 4.35-2.15 5.59-1.08 1.24 1.07.75 3.28-1.1 4.95-1.85 1.67-4.35 2.15-5.59 1.08Z" style="fill:#e84b34"/><path d="M179.08 22.06c-1.22-1.05-.74-3.22 1.07-4.86 1.81-1.64 4.27-2.11 5.49-1.06 1.22 1.05.74 3.22-1.07 4.86-1.81 1.64-4.27 2.11-5.49 1.06Z" style="fill:#e84f36"/><path d="M179.15 22.01c-1.2-1.03-.73-3.16 1.05-4.77 1.78-1.61 4.19-2.07 5.39-1.05 1.2 1.03.73 3.16-1.05 4.77-1.78 1.61-4.19 2.07-5.39 1.05Z" style="fill:#e9533a"/><path d="M179.21 21.95c-1.17-1.01-.71-3.1 1.03-4.68 1.74-1.58 4.11-2.04 5.28-1.03s.71 3.1-1.03 4.68c-1.74 1.58-4.11 2.04-5.28 1.03Z" style="fill:#e9573d"/><path d="M179.27 21.89c-1.15-.99-.7-3.04 1.01-4.59 1.71-1.55 4.03-2 5.18-1.01 1.15.99.7 3.04-1.01 4.59-1.71 1.55-4.03 2-5.18 1.01Z" style="fill:#ea5b40"/><path d="M179.33 21.84c-1.13-.97-.69-2.98.99-4.5 1.67-1.52 3.95-1.96 5.08-.99s.69 2.98-.99 4.5c-1.67 1.52-3.95 1.96-5.08.99Z" style="fill:#ea5f43"/><path d="M179.4 21.78c-1.11-.95-.67-2.92.97-4.41 1.64-1.48 3.87-1.92 4.97-.97 1.11.95.67 2.92-.97 4.41-1.64 1.48-3.87 1.92-4.97.97Z" style="fill:#eb6246"/><path d="M179.46 21.73c-1.08-.93-.66-2.86.94-4.31 1.61-1.45 3.79-1.88 4.87-.95 1.08.93.66 2.86-.94 4.31-1.61 1.45-3.79 1.88-4.87.95Z" style="fill:#eb6649"/><path d="M179.52 21.67c-1.06-.91-.65-2.8.92-4.22s3.7-1.84 4.77-.94c1.06.91.65 2.8-.92 4.22s-3.7 1.84-4.77.94Z" style="fill:#ec6a4c"/><path d="M179.59 21.62c-1.04-.89-.64-2.74.9-4.13 1.54-1.39 3.62-1.81 4.66-.92s.64 2.74-.9 4.13c-1.54 1.39-3.62 1.81-4.66.92Z" style="fill:#ec6d4f"/><path d="M179.65 21.56c-1.02-.87-.62-2.68.88-4.04 1.5-1.36 3.54-1.77 4.56-.9 1.02.87.62 2.68-.88 4.04-1.5 1.36-3.54 1.77-4.56.9Z" style="fill:#ed7153"/><path d="M179.71 21.51c-.99-.85-.61-2.62.86-3.95s3.46-1.73 4.46-.88c.99.85.61 2.62-.86 3.95s-3.46 1.73-4.45.88Z" style="fill:#ed7556"/><path d="M179.78 21.45c-.97-.83-.6-2.56.84-3.86 1.43-1.3 3.38-1.69 4.35-.86.97.83.6 2.56-.84 3.86-1.43 1.3-3.38 1.69-4.35.86Z" style="fill:#ee7859"/><path d="M179.84 21.4c-.95-.81-.58-2.49.81-3.77 1.4-1.27 3.3-1.65 4.25-.84.95.81.58 2.49-.81 3.77-1.4 1.27-3.3 1.65-4.25.84Z" style="fill:#ee7b5d"/><path d="M179.9 21.34c-.93-.79-.57-2.43.79-3.68 1.36-1.24 3.22-1.61 4.14-.83.93.79.57 2.43-.79 3.68-1.36 1.24-3.22 1.61-4.14.83Z" style="fill:#ef7f60"/><path d="M179.97 21.29c-.9-.77-.56-2.37.77-3.59 1.33-1.21 3.14-1.58 4.04-.81.9.77.56 2.37-.77 3.59-1.33 1.21-3.14 1.58-4.04.81Z" style="fill:#ef8163"/><path d="M180.03 21.23c-.88-.75-.55-2.31.75-3.5 1.29-1.18 3.06-1.54 3.94-.79.88.75.55 2.31-.75 3.5-1.29 1.18-3.06 1.54-3.94.79Z" style="fill:#f08567"/><path d="M180.09 21.18c-.86-.73-.53-2.25.73-3.4s2.98-1.5 3.83-.77c.86.73.53 2.25-.73 3.4s-2.98 1.5-3.83.77Z" style="fill:#f0886a"/><path d="M180.16 21.12c-.84-.71-.52-2.19.71-3.31s2.9-1.46 3.73-.75c.84.71.52 2.19-.71 3.31s-2.9 1.46-3.73.75Z" style="fill:#f08b6e"/><path d="M180.22 21.06c-.81-.69-.51-2.13.68-3.22 1.19-1.09 2.81-1.42 3.63-.73.81.69.51 2.13-.68 3.22-1.19 1.09-2.81 1.42-3.63.73Z" style="fill:#f18f72"/><path d="M180.28 21.01c-.79-.67-.49-2.07.66-3.13 1.16-1.06 2.73-1.38 3.52-.72.79.67.49 2.07-.66 3.13-1.16 1.06-2.73 1.38-3.52.72Z" style="fill:#f19275"/><path d="M180.35 20.95c-.77-.65-.48-2.01.64-3.04 1.12-1.03 2.65-1.35 3.42-.7.77.65.48 2.01-.64 3.04-1.12 1.03-2.65 1.35-3.42.7Z" style="fill:#f29579"/><path d="M180.41 20.9c-.74-.63-.47-1.95.62-2.95 1.09-1 2.57-1.31 3.32-.68s.47 1.95-.62 2.95c-1.09 1-2.57 1.31-3.32.68Z" style="fill:#f2997c"/><path d="M180.47 20.84c-.72-.61-.45-1.89.6-2.86s2.49-1.27 3.21-.66c.72.61.46 1.89-.6 2.86-1.05.97-2.49 1.27-3.21.66Z" style="fill:#f39c80"/><path d="M180.53 20.79c-.7-.59-.44-1.83.58-2.77s2.41-1.23 3.11-.64c.7.59.44 1.83-.58 2.77s-2.41 1.23-3.11.64Z" style="fill:#f39f83"/><path d="M180.6 20.73c-.68-.57-.43-1.77.55-2.68.98-.91 2.33-1.19 3.01-.63.68.57.43 1.77-.55 2.68-.98.91-2.33 1.19-3.01.63Z" style="fill:#f4a286"/><path d="M180.66 20.68c-.66-.55-.42-1.7.53-2.59.95-.88 2.25-1.15 2.9-.61.65.55.42 1.7-.53 2.59-.95.88-2.25 1.15-2.9.61Z" style="fill:#f4a68a"/><path d="M180.72 20.62c-.63-.53-.4-1.64.51-2.5.91-.85 2.17-1.12 2.8-.59.63.53.4 1.64-.51 2.5-.91.85-2.17 1.12-2.8.59Z" style="fill:#f4a88e"/><path d="M180.79 20.57c-.61-.51-.39-1.58.49-2.4.88-.82 2.09-1.08 2.7-.57.61.51.39 1.58-.49 2.4-.88.82-2.09 1.08-2.7.57Z" style="fill:#f5ac91"/><path d="M180.85 20.51c-.59-.49-.38-1.52.47-2.31s2.01-1.04 2.59-.55c.59.49.38 1.52-.47 2.31s-2.01 1.04-2.59.55Z" style="fill:#f5af96"/><path d="M180.91 20.46c-.56-.47-.37-1.46.44-2.22.81-.76 1.92-1 2.49-.53.56.47.37 1.46-.45 2.22-.81.76-1.92 1-2.49.53Z" style="fill:#f6b299"/><path d="M180.98 20.4c-.54-.45-.35-1.4.42-2.13.78-.73 1.84-.96 2.39-.52.54.45.35 1.4-.42 2.13s-1.84.96-2.39.52Z" style="fill:#f6b59d"/><path d="M181.04 20.35c-.52-.43-.34-1.34.4-2.04s1.76-.92 2.28-.5c.52.43.34 1.34-.4 2.04s-1.76.92-2.28.5Z" style="fill:#f7b8a1"/><path d="M181.1 20.29c-.5-.41-.33-1.28.38-1.95.71-.67 1.68-.88 2.18-.48s.33 1.28-.38 1.95c-.71.67-1.68.89-2.18.48Z" style="fill:#f7bba4"/><path d="M181.17 20.23c-.47-.39-.31-1.22.36-1.86.67-.64 1.6-.85 2.08-.46.47.39.31 1.22-.36 1.86-.67.64-1.6.85-2.08.46Z" style="fill:#f7bea8"/><path d="M181.23 20.18c-.45-.37-.3-1.16.34-1.77.64-.61 1.52-.81 1.97-.44.45.37.3 1.16-.34 1.77-.64.61-1.52.81-1.97.44Z" style="fill:#f8c2ac"/><path d="M181.29 20.12c-.43-.35-.29-1.1.32-1.68.6-.58 1.44-.77 1.87-.42.43.35.29 1.1-.32 1.68-.6.58-1.44.77-1.87.42Z" style="fill:#f8c4af"/><path d="M181.36 20.07c-.41-.33-.28-1.04.29-1.59.57-.55 1.36-.73 1.77-.41.41.33.27 1.04-.29 1.59-.57.55-1.36.73-1.76.41Z" style="fill:#f9c7b4"/><path d="M181.42 20.01c-.38-.31-.26-.98.27-1.49.53-.52 1.28-.69 1.66-.39.38.31.26.97-.27 1.49s-1.28.69-1.66.39Z" style="fill:#f9cab7"/><path d="M181.48 19.96c-.36-.29-.25-.91.25-1.4.5-.49 1.2-.65 1.56-.37.36.29.25.91-.25 1.4-.5.49-1.2.65-1.56.37Z" style="fill:#f9cdbb"/><path d="M181.54 19.9c-.34-.27-.24-.85.23-1.31.47-.46 1.12-.62 1.45-.35.34.27.24.85-.23 1.31-.46.46-1.12.62-1.45.35Z" style="fill:#fad0bf"/><path d="M181.61 19.85c-.32-.25-.22-.79.21-1.22.43-.43 1.03-.58 1.35-.33.32.25.22.79-.21 1.22-.43.43-1.04.58-1.35.33Z" style="fill:#fad3c3"/><path d="M181.67 19.79c-.29-.23-.21-.73.19-1.13.4-.4.95-.54 1.25-.31.29.23.21.73-.19 1.13-.4.4-.95.54-1.25.31Z" style="fill:#fad6c7"/><path d="M181.73 19.74c-.27-.21-.2-.67.16-1.04s.87-.5 1.14-.3c.27.21.2.67-.16 1.04s-.87.5-1.14.3Z" style="fill:#fbd9cb"/><path d="M181.8 19.68c-.25-.19-.19-.61.14-.95.33-.34.79-.46 1.04-.28.25.19.19.61-.14.95-.33.34-.79.46-1.04.28Z" style="fill:#fbdcce"/><path d="M181.86 19.63c-.23-.17-.17-.55.12-.86.29-.31.71-.42.94-.26.23.17.17.55-.12.86-.29.31-.71.42-.94.26Z" style="fill:#fbded2"/><path d="M181.92 19.57c-.2-.14-.16-.49.1-.77s.63-.39.83-.24c.2.15.16.49-.1.77s-.63.39-.83.24Z" style="fill:#fbe1d6"/><path d="M181.99 19.52c-.18-.12-.15-.43.08-.68.22-.25.55-.35.73-.22s.15.43-.08.68c-.22.25-.55.35-.73.22Z" style="fill:#fce4da"/><path d="M182.05 19.46c-.16-.1-.13-.37.05-.58.19-.22.47-.31.63-.2.16.1.13.37-.05.58-.19.22-.47.31-.63.2Z" style="fill:#fce7de"/><path d="M182.11 19.4c-.14-.08-.12-.31.03-.49.15-.19.39-.27.52-.19.14.08.12.31-.03.49-.15.19-.39.27-.52.19Z" style="fill:#fce9e1"/><path d="M182.61 18.78c.11.06.11.25-.01.4-.12.16-.31.23-.42.17-.11-.06-.11-.25.01-.4.12-.16.31-.23.42-.17Z" style="fill:#fdece5"/></g><path class="cls-251" d="M169.19 23.22s7.61-1.54 11.01-4.91c0 0 3.64-3.78 1.93-13.55 0 0-.28-1.52-.73-1.55 0 0-.32-.02-.55 1.18 0 0-.11 1.32-.53 1.81-.42.49-.71.89-2.75 1.51-2.04.61-4.07 2.18-4.65 2.99 0 0-1.35 1.65-2.34 4.85-1.14 3.72-1.39 7.68-1.39 7.68Z"/><g style="clip-path:url(#clippath-1)"><path class="cls-251" d="M179.73 7.6c1.95.27 2.9 2.83 2.12 5.72-.78 2.89-2.99 5.01-4.95 4.74-1.95-.27-2.9-2.83-2.12-5.72.78-2.89 2.99-5.01 4.95-4.74Z"/><path d="M174.84 12.35c.77-2.84 2.95-4.94 4.87-4.67 1.92.27 2.86 2.79 2.09 5.63s-2.95 4.94-4.87 4.67c-1.92-.27-2.86-2.79-2.09-5.63Z" style="fill:#0097d8"/><path d="M174.89 12.35c.75-2.8 2.9-4.86 4.79-4.6 1.89.26 2.81 2.74 2.06 5.54-.76 2.8-2.9 4.86-4.79 4.6-1.89-.26-2.81-2.74-2.06-5.54Z" style="fill:#0099d9"/><path d="M174.94 12.36c.74-2.76 2.85-4.78 4.72-4.53 1.86.26 2.77 2.7 2.03 5.45-.74 2.76-2.85 4.78-4.72 4.53-1.86-.26-2.77-2.7-2.03-5.45Z" style="fill:#009ad9"/><path d="M174.99 12.37c.73-2.71 2.81-4.71 4.64-4.46 1.83.25 2.73 2.65 2 5.37-.73 2.71-2.81 4.71-4.64 4.45-1.83-.25-2.73-2.65-2-5.37Z" style="fill:#009bda"/><path d="M175.05 12.37c.72-2.67 2.76-4.63 4.56-4.38 1.8.25 2.68 2.61 1.97 5.28-.72 2.67-2.76 4.63-4.56 4.38-1.8-.25-2.68-2.61-1.97-5.28Z" style="fill:#009ddb"/><path d="M175.1 12.38c.7-2.62 2.71-4.55 4.49-4.31s2.64 2.57 1.93 5.19c-.7 2.62-2.71 4.55-4.49 4.31-1.77-.24-2.64-2.57-1.93-5.19Z" style="fill:#009edb"/><path d="M175.15 12.39c.69-2.58 2.67-4.48 4.41-4.24 1.74.24 2.59 2.52 1.9 5.1-.69 2.58-2.67 4.48-4.41 4.24-1.74-.24-2.59-2.52-1.9-5.1Z" style="fill:#009fdc"/><path d="M175.2 12.39c.68-2.54 2.62-4.4 4.33-4.17 1.71.23 2.55 2.48 1.87 5.01-.68 2.54-2.62 4.4-4.33 4.17-1.71-.23-2.55-2.48-1.87-5.01Z" style="fill:#00a1dd"/><path d="M175.26 12.4c.67-2.49 2.57-4.33 4.26-4.1 1.68.23 2.51 2.43 1.84 4.93-.67 2.49-2.57 4.33-4.26 4.1-1.68-.23-2.51-2.43-1.84-4.93Z" style="fill:#00a2dd"/><path d="M175.31 12.41c.66-2.45 2.53-4.25 4.18-4.02 1.65.22 2.46 2.39 1.81 4.84-.65 2.45-2.53 4.25-4.18 4.02-1.65-.22-2.46-2.39-1.81-4.84Z" style="fill:#0fa4de"/><path d="M175.36 12.42c.64-2.4 2.48-4.17 4.1-3.95 1.62.22 2.42 2.35 1.78 4.75-.64 2.4-2.48 4.17-4.1 3.95-1.62-.22-2.42-2.35-1.78-4.75Z" style="fill:#1fa5df"/><path d="M175.41 12.42c.63-2.36 2.43-4.1 4.03-3.88 1.59.22 2.37 2.3 1.75 4.66-.63 2.36-2.43 4.1-4.03 3.88-1.59-.22-2.38-2.3-1.75-4.66Z" style="fill:#29a7df"/><path d="M175.47 12.43c.62-2.31 2.39-4.02 3.95-3.81 1.56.21 2.33 2.26 1.71 4.57-.62 2.31-2.39 4.02-3.95 3.81-1.56-.21-2.33-2.26-1.71-4.57Z" style="fill:#35a8e0"/><path d="M175.52 12.44c.6-2.27 2.34-3.94 3.87-3.74 1.53.21 2.29 2.22 1.68 4.49-.6 2.27-2.34 3.94-3.87 3.74-1.53-.21-2.29-2.21-1.68-4.49Z" style="fill:#3caae1"/><path d="M175.57 12.44c.59-2.23 2.29-3.87 3.8-3.67 1.5.2 2.24 2.17 1.65 4.4-.59 2.23-2.29 3.87-3.8 3.67-1.5-.2-2.24-2.17-1.65-4.4Z" style="fill:#42abe1"/><path d="M175.62 12.45c.58-2.18 2.24-3.79 3.72-3.59 1.47.2 2.2 2.13 1.62 4.31-.58 2.18-2.24 3.79-3.72 3.59-1.47-.2-2.2-2.13-1.62-4.31Z" style="fill:#48ade2"/><path d="M175.68 12.46c.57-2.14 2.2-3.72 3.64-3.52 1.44.19 2.16 2.08 1.59 4.22-.57 2.14-2.2 3.72-3.64 3.52-1.44-.19-2.15-2.08-1.59-4.22Z" style="fill:#50aee3"/><path d="M175.73 12.46c.55-2.09 2.15-3.64 3.57-3.45 1.41.19 2.11 2.04 1.56 4.13-.55 2.09-2.15 3.64-3.56 3.45-1.42-.19-2.11-2.04-1.56-4.13Z" style="fill:#55b0e3"/><path d="M175.78 12.47c.54-2.05 2.1-3.56 3.49-3.38 1.38.18 2.07 2 1.52 4.05-.54 2.05-2.1 3.56-3.49 3.38-1.38-.18-2.07-2-1.52-4.05Z" style="fill:#5ab1e4"/><path d="M175.83 12.48c.53-2.01 2.06-3.49 3.41-3.31 1.35.18 2.02 1.95 1.49 3.96s-2.06 3.49-3.41 3.31c-1.36-.18-2.02-1.95-1.49-3.96Z" style="fill:#5eb3e4"/><path d="M175.89 12.49c.52-1.96 2.01-3.41 3.34-3.24 1.32.18 1.98 1.91 1.46 3.87-.52 1.96-2.01 3.41-3.34 3.24-1.32-.18-1.98-1.91-1.46-3.87Z" style="fill:#64b5e5"/><path d="M175.94 12.49c.5-1.92 1.96-3.33 3.26-3.16s1.94 1.86 1.43 3.78c-.5 1.92-1.96 3.33-3.26 3.16-1.3-.17-1.94-1.86-1.43-3.78Z" style="fill:#69b6e6"/><path d="M175.99 12.5c.49-1.87 1.92-3.26 3.18-3.09 1.27.17 1.89 1.82 1.4 3.69-.49 1.87-1.92 3.26-3.18 3.09-1.27-.17-1.89-1.82-1.4-3.69Z" style="fill:#6db7e6"/><path d="M176.04 12.51c.48-1.83 1.87-3.18 3.11-3.02s1.85 1.78 1.37 3.61c-.48 1.83-1.87 3.18-3.11 3.02-1.24-.16-1.85-1.78-1.37-3.61Z" style="fill:#73b9e7"/><path d="M176.1 12.51c.47-1.79 1.82-3.11 3.03-2.95 1.2.16 1.8 1.73 1.34 3.52-.47 1.79-1.82 3.11-3.03 2.95-1.21-.16-1.8-1.73-1.34-3.52Z" style="fill:#77bbe8"/><path d="M176.15 12.52c.45-1.74 1.78-3.03 2.95-2.88 1.18.15 1.76 1.69 1.31 3.43-.45 1.74-1.78 3.03-2.95 2.88-1.18-.15-1.76-1.69-1.3-3.43Z" style="fill:#7bbce8"/><path d="M176.2 12.53c.44-1.7 1.73-2.95 2.88-2.8 1.15.15 1.72 1.64 1.27 3.34-.44 1.7-1.73 2.95-2.87 2.81-1.15-.15-1.72-1.64-1.27-3.34Z" style="fill:#80bee9"/><path d="M176.25 12.53c.43-1.65 1.68-2.88 2.8-2.73 1.12.14 1.67 1.6 1.24 3.25-.43 1.65-1.68 2.88-2.8 2.73-1.12-.14-1.67-1.6-1.24-3.25Z" style="fill:#82c0ea"/><path d="M176.31 12.54c.42-1.61 1.64-2.8 2.72-2.66 1.09.14 1.63 1.56 1.21 3.17s-1.64 2.8-2.72 2.66-1.63-1.56-1.21-3.17Z" style="fill:#86c1ea"/><path d="M176.36 12.55c.4-1.56 1.59-2.72 2.64-2.59 1.06.13 1.58 1.51 1.18 3.08-.4 1.56-1.59 2.72-2.65 2.59-1.06-.13-1.58-1.51-1.18-3.08Z" style="fill:#89c2eb"/><path d="M176.41 12.55c.39-1.52 1.54-2.65 2.57-2.52 1.03.13 1.54 1.47 1.15 2.99-.39 1.52-1.54 2.65-2.57 2.52-1.03-.13-1.54-1.47-1.15-2.99Z" style="fill:#8ec4eb"/><path d="M176.46 12.56c.38-1.48 1.5-2.57 2.49-2.45 1 .13 1.5 1.42 1.12 2.9-.38 1.48-1.5 2.57-2.49 2.45-1-.13-1.5-1.42-1.12-2.9Z" style="fill:#91c6ec"/><path d="M176.52 12.57c.37-1.43 1.45-2.5 2.42-2.37.97.12 1.45 1.38 1.08 2.81-.37 1.43-1.45 2.5-2.42 2.37-.97-.12-1.45-1.38-1.08-2.81Z" style="fill:#95c7ec"/><path d="M176.57 12.58c.35-1.39 1.4-2.42 2.34-2.3.94.12 1.41 1.34 1.05 2.73-.35 1.39-1.4 2.42-2.34 2.3-.94-.12-1.41-1.34-1.05-2.73Z" style="fill:#99c9ed"/><path d="M176.62 12.58c.34-1.34 1.35-2.34 2.26-2.23.91.11 1.36 1.29 1.02 2.64-.34 1.34-1.35 2.34-2.26 2.23-.91-.11-1.36-1.29-1.02-2.64Z" style="fill:#9ccbee"/><path d="M176.67 12.59c.33-1.3 1.31-2.27 2.19-2.16.88.11 1.32 1.25.99 2.55-.33 1.3-1.31 2.27-2.19 2.16-.88-.11-1.32-1.25-.99-2.55Z" style="fill:#9fccee"/><path d="M176.73 12.6c.32-1.26 1.26-2.19 2.11-2.09.85.1 1.28 1.2.96 2.46-.32 1.26-1.26 2.19-2.11 2.09-.85-.1-1.28-1.2-.96-2.46Z" style="fill:#a2ceef"/><path d="M176.78 12.6c.31-1.21 1.21-2.11 2.03-2.02.82.1 1.23 1.16.93 2.37-.3 1.21-1.21 2.11-2.03 2.02-.82-.1-1.23-1.16-.93-2.37Z" style="fill:#a7d0f0"/><path d="M176.83 12.61c.29-1.17 1.17-2.04 1.95-1.94.79.09 1.19 1.12.9 2.28-.29 1.17-1.17 2.04-1.95 1.94-.79-.09-1.19-1.12-.9-2.28Z" style="fill:#aad1f0"/><path d="M176.88 12.62c.28-1.12 1.12-1.96 1.88-1.87.76.09 1.14 1.07.86 2.2-.28 1.12-1.12 1.96-1.88 1.87-.76-.09-1.14-1.07-.86-2.2Z" style="fill:#add2f1"/><path d="M176.94 12.62c.27-1.08 1.07-1.89 1.8-1.8.73.09 1.1 1.03.83 2.11-.27 1.08-1.07 1.89-1.8 1.8-.73-.09-1.1-1.03-.83-2.11Z" style="fill:#b1d4f1"/><path d="M176.99 12.63c.26-1.04 1.03-1.81 1.72-1.73s1.06.99.8 2.02c-.26 1.04-1.03 1.81-1.73 1.73-.7-.08-1.06-.99-.8-2.02Z" style="fill:#b4d6f2"/><path d="M177.04 12.64c.24-.99.98-1.73 1.65-1.66.67.08 1.01.94.77 1.93s-.98 1.73-1.65 1.66c-.67-.08-1.01-.94-.77-1.93Z" style="fill:#b7d7f2"/><path d="M177.09 12.65c.23-.95.93-1.66 1.57-1.58.64.07.97.9.74 1.84-.23.95-.93 1.66-1.57 1.59-.64-.07-.97-.9-.74-1.84Z" style="fill:#bad9f3"/><path d="M177.15 12.65c.22-.9.89-1.58 1.5-1.51.61.07.92.85.71 1.76-.22.9-.89 1.58-1.49 1.51-.61-.07-.92-.85-.71-1.76Z" style="fill:#bedbf4"/><path d="M177.2 12.66c.2-.86.84-1.5 1.42-1.44.58.06.88.81.68 1.67-.2.86-.84 1.5-1.42 1.44-.58-.06-.88-.81-.68-1.67Z" style="fill:#c1dcf4"/><path d="M177.25 12.67c.19-.81.79-1.43 1.34-1.37.55.06.84.77.64 1.58-.19.81-.79 1.43-1.34 1.37-.55-.06-.84-.77-.64-1.58Z" style="fill:#c4def5"/><path d="M177.3 12.67c.18-.77.75-1.35 1.26-1.3.52.05.79.72.61 1.49-.18.77-.75 1.35-1.26 1.3-.52-.05-.79-.72-.61-1.49Z" style="fill:#c7e0f5"/><path d="M177.36 12.68c.17-.73.7-1.28 1.19-1.23.49.05.75.68.58 1.4-.17.73-.7 1.28-1.19 1.23-.49-.05-.75-.68-.58-1.4Z" style="fill:#cae1f6"/><path d="M177.41 12.69c.15-.68.65-1.2 1.11-1.15.46.04.7.63.55 1.32-.15.68-.65 1.2-1.11 1.15s-.71-.63-.55-1.32Z" style="fill:#cde2f6"/><path d="M177.46 12.69c.14-.64.61-1.12 1.03-1.08.43.04.66.59.52 1.23s-.61 1.12-1.03 1.08c-.43-.04-.66-.59-.52-1.23Z" style="fill:#cfe4f7"/><path d="M177.51 12.7c.13-.59.56-1.05.96-1.01.4.04.62.55.49 1.14-.13.59-.56 1.05-.96 1.01-.4-.04-.62-.55-.49-1.14Z" style="fill:#d3e5f7"/><path d="M177.56 12.71c.12-.55.51-.97.88-.94.37.03.57.5.46 1.05-.12.55-.51.97-.88.94s-.57-.5-.46-1.05Z" style="fill:#d5e7f8"/><path d="M177.62 12.72c.11-.51.47-.89.8-.87.34.03.53.46.42.96-.11.51-.47.89-.8.87-.34-.03-.53-.46-.42-.96Z" style="fill:#d8e9f8"/><path d="M177.67 12.72c.09-.46.42-.82.73-.8.31.02.48.41.39.88-.09.46-.42.82-.73.8-.31-.02-.49-.41-.39-.88Z" style="fill:#dcebf9"/><path d="M177.72 12.73c.08-.42.37-.74.65-.72.28.02.44.37.36.79-.08.42-.37.74-.65.72-.28-.02-.44-.37-.36-.79Z" style="fill:#deecf9"/><path d="M177.78 12.74c.07-.37.32-.67.57-.65.25.01.4.33.33.7-.07.37-.32.67-.57.65-.25-.01-.4-.33-.33-.7Z" style="fill:#e1eefa"/><path d="M177.83 12.74c.06-.33.28-.59.5-.58.22 0 .35.28.3.61-.06.33-.28.59-.5.58-.22 0-.35-.28-.3-.61Z" style="fill:#e3f0fb"/><path d="M177.88 12.75c.04-.29.23-.51.42-.51.19 0 .31.24.27.52-.04.29-.23.51-.42.51-.19 0-.31-.24-.27-.52Z" style="fill:#e7f1fb"/><path d="M177.93 12.76c.03-.24.18-.44.34-.44.16 0 .27.19.24.44-.03.24-.18.44-.34.44-.16 0-.26-.19-.23-.44Z" style="fill:#e9f3fb"/><path d="M178.25 12.4c.13 0 .22.15.2.35-.02.2-.14.36-.27.37-.13 0-.22-.15-.2-.35.02-.2.14-.36.27-.37Z" style="fill:#ecf4fc"/></g><path class="cls-226" d="M169.19 23.22s4.84-6.07 5.28-10.83c0 0 .36-5.24-7.23-11.62 0 0-1.19-.98-1.56-.71 0 0-.26.19.33 1.26 0 0 .76 1.08.76 1.73 0 .65.03 1.14-1.14 2.92s-1.71 4.29-1.64 5.27c0 0 .03 2.14 1.33 5.21 1.51 3.58 3.88 6.77 3.88 6.77Z"/><g style="clip-path:url(#clippath-2)"><path class="cls-226" d="M167.76 4.38c1.78-.84 3.98.79 4.9 3.64.92 2.85.22 5.83-1.57 6.67s-3.98-.79-4.9-3.64c-.92-2.85-.22-5.83 1.57-6.67Z"/><path d="M166.27 11.02c-.9-2.78-.22-5.7 1.53-6.52 1.74-.82 3.89.77 4.78 3.55.9 2.78.22 5.7-1.53 6.52-1.74.82-3.89-.77-4.78-3.55Z" style="fill:#008035"/><path d="M166.34 10.98c-.88-2.72-.21-5.57 1.49-6.37 1.7-.8 3.79.75 4.67 3.47.88 2.72.21 5.57-1.49 6.37-1.7.8-3.79-.75-4.67-3.47Z" style="fill:#008238"/><path d="M166.41 10.94c-.86-2.65-.21-5.43 1.45-6.22 1.66-.78 3.7.73 4.56 3.38.86 2.65.21 5.43-1.45 6.22-1.66.78-3.7-.73-4.56-3.38Z" style="fill:#00843b"/><path d="M166.49 10.91c-.84-2.59-.21-5.3 1.41-6.06 1.62-.76 3.61.71 4.45 3.3.84 2.59.21 5.3-1.41 6.06-1.62.76-3.61-.71-4.45-3.3Z" style="fill:#00863e"/><path d="M166.56 10.87c-.82-2.52-.21-5.17 1.37-5.91 1.58-.75 3.52.69 4.34 3.21.82 2.52.21 5.17-1.37 5.91-1.58.75-3.52-.69-4.34-3.21Z" style="fill:#008841"/><path d="M166.63 10.83c-.8-2.45-.21-5.03 1.33-5.76 1.54-.73 3.43.67 4.23 3.13.8 2.45.21 5.03-1.33 5.76-1.54.73-3.43-.67-4.23-3.13Z" style="fill:#008a44"/><path d="M166.71 10.8c-.78-2.39-.2-4.9 1.29-5.61 1.5-.71 3.34.65 4.12 3.04.78 2.39.2 4.9-1.29 5.61-1.5.71-3.34-.65-4.12-3.04Z" style="fill:#028c47"/><path d="M166.78 10.76c-.76-2.32-.2-4.77 1.25-5.46 1.45-.69 3.25.63 4.01 2.96.76 2.32.2 4.77-1.25 5.46-1.45.69-3.25-.63-4.01-2.96Z" style="fill:#198f4b"/><path d="M166.85 10.72c-.74-2.26-.2-4.63 1.21-5.31 1.41-.67 3.16.61 3.9 2.87.74 2.26.2 4.63-1.22 5.31-1.41.67-3.16-.61-3.9-2.87Z" style="fill:#25914f"/><path d="M166.93 10.69c-.72-2.19-.2-4.5 1.18-5.15 1.37-.65 3.07.59 3.79 2.78.72 2.19.2 4.5-1.18 5.15-1.37.65-3.07-.59-3.79-2.78Z" style="fill:#319453"/><path d="M167 10.65c-.7-2.13-.19-4.37 1.14-5 1.33-.64 2.98.57 3.68 2.7.7 2.13.19 4.37-1.14 5-1.33.64-2.98-.57-3.68-2.7Z" style="fill:#399657"/><path d="M167.07 10.61c-.68-2.06-.19-4.23 1.1-4.85 1.29-.62 2.89.55 3.57 2.61.68 2.06.19 4.23-1.1 4.85-1.29.62-2.89-.55-3.57-2.61Z" style="fill:#40995b"/><path d="M167.15 10.58c-.66-2-.19-4.1 1.06-4.7 1.25-.6 2.8.53 3.46 2.53.66 2 .19 4.1-1.06 4.7-1.25.6-2.8-.53-3.46-2.53Z" style="fill:#499c60"/><path d="M167.22 10.54c-.64-1.93-.19-3.97 1.02-4.55 1.21-.58 2.71.51 3.35 2.44.64 1.93.19 3.97-1.02 4.55-1.21.58-2.71-.51-3.35-2.44Z" style="fill:#509e64"/><path d="M167.29 10.5c-.63-1.86-.19-3.83.98-4.4 1.17-.56 2.62.49 3.24 2.36.62 1.86.19 3.83-.98 4.4-1.17.56-2.62-.49-3.24-2.36Z" style="fill:#57a169"/><path d="M167.37 10.47c-.6-1.8-.18-3.7.94-4.24 1.13-.54 2.53.47 3.13 2.27.6 1.8.18 3.7-.94 4.24-1.13.54-2.53-.47-3.13-2.27Z" style="fill:#5fa46c"/><path d="M167.44 10.43c-.58-1.73-.18-3.57.9-4.09 1.08-.53 2.44.45 3.02 2.19.58 1.73.18 3.57-.9 4.09-1.08.53-2.44-.45-3.02-2.19Z" style="fill:#65a671"/><path d="M167.51 10.39c-.57-1.67-.18-3.43.86-3.94 1.04-.51 2.35.43 2.91 2.1.57 1.67.18 3.43-.86 3.94-1.04.51-2.35-.43-2.91-2.1Z" style="fill:#6ca976"/><path d="M167.59 10.36c-.55-1.6-.18-3.3.83-3.79 1-.49 2.26.41 2.8 2.02.55 1.6.18 3.3-.83 3.79-1 .49-2.26-.41-2.8-2.02Z" style="fill:#73ac7a"/><path d="M167.66 10.32c-.53-1.54-.17-3.17.79-3.64.96-.47 2.17.39 2.69 1.93.53 1.54.17 3.17-.79 3.64-.96.47-2.17-.39-2.69-1.93Z" style="fill:#79b080"/><path d="M167.74 10.29c-.51-1.47-.17-3.03.75-3.49.92-.45 2.08.37 2.58 1.85.51 1.47.17 3.03-.75 3.49-.92.45-2.08-.37-2.58-1.85Z" style="fill:#7eb284"/><path d="M167.81 10.25c-.49-1.41-.17-2.9.71-3.33s1.99.35 2.47 1.76c.49 1.41.17 2.9-.71 3.33-.88.43-1.98-.35-2.47-1.76Z" style="fill:#83b588"/><path d="M167.88 10.21c-.47-1.34-.17-2.77.67-3.18.84-.42 1.89.33 2.36 1.67.47 1.34.17 2.77-.67 3.18-.84.42-1.89-.33-2.36-1.67Z" style="fill:#89b88d"/><path d="M167.96 10.18c-.45-1.28-.16-2.63.63-3.03.8-.4 1.8.31 2.25 1.59.45 1.28.16 2.63-.63 3.03-.8.4-1.81-.31-2.25-1.59Z" style="fill:#8ebb91"/><path d="M168.03 10.14c-.43-1.21-.16-2.5.59-2.88.76-.38 1.71.29 2.14 1.5.43 1.21.16 2.5-.59 2.88-.76.38-1.71-.29-2.14-1.5Z" style="fill:#94be97"/><path d="M168.1 10.1c-.41-1.14-.16-2.37.55-2.73.71-.36 1.62.27 2.03 1.42.41 1.14.16 2.37-.55 2.73-.71.36-1.62-.27-2.03-1.42Z" style="fill:#99c19c"/><path d="M168.18 10.07c-.39-1.08-.16-2.23.52-2.58.67-.34 1.53.25 1.92 1.33.39 1.08.16 2.23-.52 2.58-.67.34-1.53-.25-1.92-1.33Z" style="fill:#9ec4a0"/><path d="M168.25 10.03c-.37-1.01-.16-2.1.48-2.42.63-.32 1.44.23 1.81 1.25.37 1.01.16 2.1-.48 2.42-.63.32-1.44-.23-1.81-1.25Z" style="fill:#a4c8a6"/><path d="M168.32 9.99c-.35-.95-.15-1.97.44-2.27.59-.31 1.35.21 1.7 1.16.35.95.15 1.97-.44 2.27-.59.31-1.35-.21-1.7-1.16Z" style="fill:#a9caaa"/><path d="M168.4 9.96c-.33-.88-.15-1.83.4-2.12.55-.29 1.26.19 1.59 1.08.33.88.15 1.83-.4 2.12-.55.29-1.26-.19-1.59-1.08Z" style="fill:#afceb0"/><path d="M168.47 9.92c-.31-.82-.15-1.7.36-1.97s1.17.17 1.48.99c.31.82.15 1.7-.36 1.97s-1.17-.17-1.48-.99Z" style="fill:#b5d1b5"/><path d="M168.54 9.88c-.29-.75-.15-1.56.32-1.82.47-.25 1.08.15 1.37.9.29.75.15 1.56-.32 1.82-.47.25-1.08-.15-1.37-.9Z" style="fill:#bad4b9"/><path d="M168.62 9.85c-.27-.69-.14-1.43.28-1.67.43-.23.99.13 1.26.82s.15 1.43-.28 1.67c-.43.23-.99-.13-1.26-.82Z" style="fill:#bfd7bf"/><path d="M168.69 9.81c-.25-.62-.14-1.3.24-1.51.38-.22.9.11 1.15.73.25.62.14 1.3-.24 1.51-.38.22-.9-.11-1.15-.73Z" style="fill:#c4dac4"/><path d="M168.76 9.77c-.23-.56-.14-1.16.2-1.36.34-.2.81.09 1.04.65.23.56.14 1.16-.2 1.36-.34.2-.81-.09-1.04-.65Z" style="fill:#cadec9"/><path d="M168.84 9.74c-.21-.49-.14-1.03.16-1.21.3-.18.72.07.93.56.21.49.14 1.03-.16 1.21-.3.18-.72-.07-.93-.56Z" style="fill:#cfe1cf"/><path d="M168.91 9.7c-.19-.42-.14-.9.13-1.06.26-.16.63.05.82.48.19.42.14.9-.13 1.06-.26.16-.63-.05-.82-.48Z" style="fill:#d4e3d3"/><path d="M168.98 9.66c-.17-.36-.13-.76.09-.91.22-.14.54.03.71.39.17.36.13.76-.09.91-.22.14-.54-.03-.71-.39Z" style="fill:#d9e7d9"/><path d="M169.06 9.63c-.15-.29-.13-.63.05-.76.18-.12.45.01.6.31.15.29.13.63-.05.76-.18.12-.45-.01-.6-.31Z" style="fill:#deeade"/><path d="M169.13 9.59c-.13-.23-.13-.5 0-.6.14-.11.36 0 .49.22.13.23.13.5 0 .6-.14.11-.36 0-.49-.22Z" style="fill:#e3ede3"/><path d="M169.18 9.1c.1-.09.27-.03.38.14.11.16.13.36.03.45-.1.09-.27.03-.38-.14-.11-.16-.13-.36-.03-.45Z" style="fill:#e8f0e8"/></g><path class="cls-41" d="M169.18 23.22s.07-7.77-2.51-11.79c0 0-2.94-4.35-12.85-4.71 0 0-1.55-.04-1.66.4 0 0-.09.31 1.03.79 0 0 1.27.38 1.66.9.39.52.72.88.9 3 .18 2.12 1.29 4.43 1.95 5.17 0 0 1.34 1.67 4.26 3.29 3.4 1.89 7.22 2.95 7.22 2.95Z"/><g style="clip-path:url(#clippath-3)"><path class="cls-41" d="M155.8 10.19c.51-1.9 3.16-2.54 5.94-1.41 2.77 1.13 4.61 3.58 4.1 5.49-.5 1.9-3.16 2.54-5.93 1.41-2.77-1.13-4.61-3.58-4.1-5.49Z"/><path d="M155.94 10.25c.49-1.85 3.08-2.47 5.77-1.37 2.7 1.09 4.48 3.48 3.99 5.34-.49 1.85-3.08 2.47-5.77 1.37-2.7-1.09-4.48-3.48-3.99-5.34Z" style="fill:#d25c83"/><path d="M156.08 10.3c.48-1.8 2.99-2.4 5.61-1.33 2.62 1.06 4.36 3.38 3.88 5.18-.48 1.8-2.99 2.4-5.61 1.33-2.62-1.06-4.36-3.38-3.88-5.18Z" style="fill:#d36287"/><path d="M156.22 10.36c.46-1.75 2.9-2.33 5.45-1.3 2.54 1.03 4.23 3.28 3.77 5.03-.46 1.75-2.9 2.33-5.45 1.3-2.54-1.03-4.23-3.28-3.77-5.03Z" style="fill:#d5678b"/><path d="M156.35 10.41c.45-1.7 2.81-2.26 5.28-1.26 2.47 1 4.11 3.19 3.66 4.88-.45 1.7-2.81 2.26-5.28 1.26-2.47-1-4.11-3.19-3.66-4.88Z" style="fill:#d66d8e"/><path d="M156.49 10.47c.43-1.64 2.73-2.19 5.12-1.22s3.98 3.09 3.55 4.73c-.43 1.64-2.73 2.19-5.12 1.22s-3.98-3.09-3.55-4.73Z" style="fill:#d77292"/><path d="M156.63 10.53c.42-1.59 2.64-2.12 4.96-1.18 2.32.94 3.85 2.99 3.43 4.58-.42 1.59-2.64 2.12-4.95 1.18-2.32-.94-3.85-2.99-3.43-4.58Z" style="fill:#d87795"/><path d="M156.77 10.58c.41-1.54 2.55-2.05 4.79-1.15 2.24.91 3.73 2.89 3.32 4.43-.41 1.54-2.55 2.05-4.79 1.15-2.24-.91-3.73-2.89-3.32-4.43Z" style="fill:#da7d99"/><path d="M156.9 10.64c.39-1.49 2.46-1.98 4.63-1.11 2.16.87 3.6 2.79 3.21 4.28-.39 1.49-2.46 1.98-4.63 1.11-2.16-.87-3.6-2.79-3.21-4.27Z" style="fill:#db819d"/><path d="M157.04 10.7c.38-1.43 2.38-1.91 4.46-1.07 2.09.84 3.48 2.69 3.1 4.12-.38 1.43-2.38 1.91-4.47 1.07-2.09-.84-3.48-2.69-3.1-4.12Z" style="fill:#dc86a0"/><path d="M157.18 10.75c.36-1.38 2.29-1.84 4.3-1.03s3.35 2.59 2.99 3.97c-.36 1.38-2.29 1.84-4.3 1.03s-3.35-2.59-2.99-3.97Z" style="fill:#de8ba4"/><path d="M157.32 10.81c.35-1.33 2.2-1.78 4.14-.99 1.94.78 3.22 2.49 2.87 3.82-.35 1.33-2.2 1.78-4.14.99-1.94-.78-3.22-2.49-2.87-3.82Z" style="fill:#e091a9"/><path d="M157.46 10.86c.34-1.28 2.11-1.71 3.98-.96 1.86.75 3.1 2.39 2.76 3.67-.33 1.28-2.11 1.71-3.97.96-1.86-.75-3.1-2.39-2.76-3.67Z" style="fill:#e196ad"/><path d="M157.59 10.92c.32-1.23 2.03-1.64 3.81-.92 1.78.72 2.97 2.29 2.65 3.52-.32 1.23-2.03 1.64-3.81.92-1.78-.72-2.97-2.29-2.65-3.52Z" style="fill:#e29bb1"/><path d="M157.73 10.98c.31-1.17 1.94-1.57 3.65-.88 1.71.69 2.85 2.19 2.54 3.37-.31 1.17-1.94 1.57-3.65.88-1.71-.69-2.85-2.19-2.54-3.37Z" style="fill:#e4a0b5"/><path d="M157.87 11.03c.29-1.12 1.85-1.5 3.49-.84 1.63.65 2.72 2.09 2.43 3.22-.29 1.12-1.85 1.5-3.49.84-1.63-.65-2.72-2.09-2.43-3.22Z" style="fill:#e5a4b8"/><path d="M158.01 11.09c.28-1.07 1.77-1.43 3.32-.81 1.56.62 2.59 1.99 2.32 3.06-.28 1.07-1.77 1.43-3.32.81-1.56-.62-2.59-1.99-2.31-3.06Z" style="fill:#e6aabc"/><path d="M158.14 11.15c.26-1.02 1.68-1.36 3.16-.77 1.48.59 2.47 1.9 2.2 2.91-.26 1.02-1.68 1.36-3.16.77-1.48-.59-2.47-1.9-2.2-2.91Z" style="fill:#e7aebf"/><path d="M158.28 11.2c.25-.96 1.59-1.29 3-.73 1.4.56 2.34 1.8 2.09 2.76-.25.96-1.59 1.29-3 .73-1.4-.56-2.34-1.8-2.09-2.76Z" style="fill:#e9b3c3"/><path d="M158.42 11.26c.24-.91 1.5-1.22 2.83-.69s2.21 1.7 1.98 2.61c-.24.91-1.5 1.22-2.83.69s-2.22-1.7-1.98-2.61Z" style="fill:#ebb9c8"/><path d="M158.56 11.31c.22-.86 1.42-1.15 2.67-.66 1.25.5 2.09 1.6 1.87 2.46-.22.86-1.42 1.15-2.67.66-1.25-.5-2.09-1.6-1.87-2.46Z" style="fill:#ecbdcc"/><path d="M158.69 11.37c.21-.81 1.33-1.08 2.51-.62 1.18.47 1.96 1.5 1.76 2.31-.21.81-1.33 1.08-2.51.62-1.18-.47-1.96-1.5-1.76-2.31Z" style="fill:#edc2d0"/><path d="M158.83 11.43c.19-.76 1.24-1.01 2.34-.58 1.1.43 1.84 1.4 1.64 2.15-.19.76-1.24 1.01-2.34.58-1.1-.44-1.84-1.4-1.64-2.15Z" style="fill:#efc7d3"/><path d="M158.97 11.48c.18-.7 1.15-.95 2.18-.54 1.02.4 1.71 1.3 1.53 2-.18.7-1.15.95-2.18.54-1.03-.4-1.71-1.3-1.53-2Z" style="fill:#f0ccd7"/><path d="M159.11 11.54c.16-.65 1.07-.88 2.02-.5.95.37 1.58 1.2 1.42 1.85-.16.65-1.07.88-2.02.5-.95-.37-1.59-1.2-1.42-1.85Z" style="fill:#f1d0db"/><path d="M159.24 11.6c.15-.6.98-.81 1.85-.47s1.46 1.1 1.31 1.7c-.15.6-.98.81-1.85.47-.87-.34-1.46-1.1-1.31-1.7Z" style="fill:#f3d5de"/><path d="M159.38 11.65c.14-.55.89-.74 1.69-.43.8.31 1.33 1 1.2 1.55s-.89.74-1.69.43c-.8-.31-1.33-1-1.2-1.55Z" style="fill:#f4d9e2"/><path d="M159.52 11.71c.12-.49.81-.67 1.53-.39s1.21.9 1.08 1.4c-.12.49-.8.67-1.53.39-.72-.28-1.21-.9-1.08-1.4Z" style="fill:#f6dfe7"/><path d="M159.66 11.76c.11-.44.72-.6 1.36-.35.64.25 1.08.8.97 1.25-.11.44-.72.6-1.36.35-.64-.25-1.08-.8-.97-1.25Z" style="fill:#f7e4ea"/><path d="M159.8 11.82c.09-.39.63-.53 1.2-.32.57.22.95.71.86 1.09-.09.39-.63.53-1.2.32-.57-.22-.95-.71-.86-1.1Z" style="fill:#f8e8ee"/><path d="M159.93 11.88c.08-.34.54-.46 1.04-.28.49.18.83.61.75.94-.08.34-.54.46-1.04.28-.49-.18-.83-.61-.75-.94Z" style="fill:#f9edf1"/><path d="M160.07 11.93c.06-.29.46-.39.87-.24.42.15.7.51.64.79-.06.28-.46.39-.87.24-.42-.15-.7-.51-.64-.79Z" style="fill:#fbf1f5"/><path d="M160.21 11.99c.05-.23.37-.32.71-.2.34.12.58.41.53.64-.05.23-.37.32-.71.2-.34-.12-.58-.41-.53-.64Z" style="fill:#fcf5f8"/><path d="M160.35 12.04c.04-.18.28-.25.55-.16.26.09.45.31.41.49-.04.18-.28.25-.55.16s-.45-.31-.41-.49Z" style="fill:#fdfafb"/><path d="M160.48 12.1c.02-.13.19-.19.38-.13s.32.21.3.34c-.02.13-.19.19-.38.13s-.32-.21-.3-.34Z" style="fill:#fff"/></g><path class="cls-46" d="M169.18 23.22s-4.5-6.33-8.96-8.06c0 0-4.94-1.79-13.17 3.75 0 0-1.27.87-1.11 1.3 0 0 .11.3 1.3.03 0 0 1.25-.44 1.87-.25.62.19 1.11.29 2.5 1.9s3.65 2.83 4.62 3.03c0 0 2.06.56 5.38.16 3.86-.47 7.58-1.86 7.58-1.86Z"/><g style="clip-path:url(#clippath-4)"><path class="cls-46" d="M150.91 20.79c-.87-1.77.72-3.99 3.55-4.96 2.83-.97 5.83-.32 6.7 1.45.87 1.77-.72 3.99-3.55 4.96-2.83.97-5.83.32-6.7-1.45Z"/><path d="M151.03 20.75c-.85-1.73.71-3.9 3.47-4.84 2.77-.95 5.7-.31 6.54 1.42.85 1.73-.71 3.9-3.47 4.84-2.77.95-5.7.31-6.54-1.42Z" style="fill:#ef8009"/><path d="M151.14 20.72c-.83-1.69.69-3.81 3.39-4.73 2.7-.92 5.56-.31 6.39 1.38.83 1.69-.69 3.81-3.39 4.73-2.7.92-5.56.31-6.39-1.38Z" style="fill:#ef8214"/><path d="M151.26 20.68c-.81-1.65.67-3.72 3.31-4.62s5.43-.3 6.24 1.35c.81 1.65-.67 3.72-3.31 4.62-2.64.9-5.43.3-6.24-1.35Z" style="fill:#f0851a"/><path d="M151.37 20.65c-.79-1.61.66-3.62 3.23-4.51 2.57-.88 5.3-.29 6.09 1.32s-.66 3.62-3.23 4.51c-2.57.88-5.3.29-6.09-1.32Z" style="fill:#f08722"/><path d="M151.48 20.61c-.77-1.57.64-3.53 3.15-4.39 2.51-.86 5.16-.28 5.93 1.28.77 1.57-.64 3.53-3.15 4.39-2.51.86-5.17.28-5.93-1.28Z" style="fill:#f18b28"/><path d="M151.6 20.57c-.75-1.53.62-3.44 3.07-4.28 2.44-.84 5.03-.28 5.78 1.25s-.62 3.44-3.07 4.28c-2.44.84-5.03.28-5.78-1.25Z" style="fill:#f18e2d"/><path d="M151.71 20.54c-.73-1.49.61-3.35 2.99-4.17 2.38-.81 4.9-.27 5.63 1.22s-.61 3.35-2.99 4.17c-2.38.81-4.9.27-5.63-1.22Z" style="fill:#f29233"/><path d="M151.83 20.5c-.71-1.45.59-3.26 2.91-4.05 2.31-.79 4.77-.26 5.48 1.18.71 1.45-.59 3.26-2.91 4.05-2.32.79-4.77.26-5.48-1.18Z" style="fill:#f39438"/><path d="M151.94 20.47c-.69-1.41.58-3.17 2.83-3.94s4.63-.25 5.32 1.15c.69 1.41-.58 3.17-2.83 3.94s-4.63.25-5.32-1.15Z" style="fill:#f3973e"/><path d="M152.06 20.43c-.67-1.37.56-3.08 2.74-3.83 2.19-.75 4.5-.25 5.17 1.12.67 1.37-.56 3.08-2.74 3.83-2.19.75-4.5.25-5.17-1.12Z" style="fill:#f49b44"/><path d="M152.17 20.4c-.65-1.33.54-2.99 2.66-3.72s4.37-.24 5.02 1.09-.54 2.99-2.66 3.72-4.37.24-5.02-1.09Z" style="fill:#f49e49"/><path d="M152.29 20.36c-.63-1.29.53-2.9 2.58-3.6 2.06-.7 4.24-.23 4.87 1.05.63 1.29-.53 2.9-2.58 3.6-2.06.7-4.24.23-4.87-1.05Z" style="fill:#f4a04f"/><path d="M152.4 20.33c-.61-1.24.51-2.81 2.5-3.49 1.99-.68 4.1-.23 4.71 1.02.61 1.24-.51 2.81-2.5 3.49-1.99.68-4.1.23-4.71-1.02Z" style="fill:#f5a455"/><path d="M152.52 20.29c-.59-1.2.49-2.72 2.42-3.38 1.93-.66 3.97-.22 4.56.99.59 1.2-.49 2.72-2.42 3.38-1.93.66-3.97.22-4.56-.99Z" style="fill:#f5a75a"/><path d="M152.63 20.26c-.57-1.16.48-2.63 2.34-3.26 1.86-.64 3.84-.21 4.41.95.57 1.16-.48 2.63-2.34 3.26-1.86.64-3.84.21-4.41-.95Z" style="fill:#f6a960"/><path d="M152.75 20.22c-.55-1.12.46-2.53 2.26-3.15 1.8-.62 3.71-.2 4.26.92.55 1.12-.46 2.53-2.26 3.15-1.8.62-3.7.2-4.26-.92Z" style="fill:#f6ad65"/><path d="M152.86 20.19c-.53-1.08.44-2.44 2.18-3.04 1.73-.59 3.57-.2 4.1.89.53 1.08-.44 2.44-2.18 3.04-1.73.59-3.57.2-4.1-.89Z" style="fill:#f7af6b"/><path d="M152.97 20.15c-.51-1.04.43-2.35 2.1-2.92 1.67-.57 3.44-.19 3.95.85.51 1.04-.43 2.35-2.1 2.92-1.67.57-3.44.19-3.95-.85Z" style="fill:#f7b371"/><path d="M153.09 20.11c-.49-1 .41-2.26 2.02-2.81 1.61-.55 3.31-.18 3.8.82.49 1-.41 2.26-2.02 2.81-1.61.55-3.31.18-3.8-.82Z" style="fill:#f8b676"/><path d="M153.2 20.08c-.47-.96.39-2.17 1.94-2.7 1.54-.53 3.17-.17 3.65.79.47.96-.39 2.17-1.94 2.7-1.54.53-3.17.17-3.65-.79Z" style="fill:#f8b87b"/><path d="M153.32 20.04c-.45-.92.38-2.08 1.85-2.59 1.48-.51 3.04-.17 3.49.76.45.92-.38 2.08-1.85 2.59-1.48.51-3.04.17-3.49-.76Z" style="fill:#f8bc80"/><path d="M153.43 20.01c-.43-.88.36-1.99 1.77-2.47 1.41-.48 2.91-.16 3.34.72.43.88-.36 1.99-1.77 2.47-1.41.48-2.91.16-3.34-.72Z" style="fill:#f9be85"/><path d="M153.55 19.97c-.41-.84.34-1.9 1.69-2.36 1.35-.46 2.77-.15 3.19.69.41.84-.34 1.9-1.69 2.36-1.35.46-2.78.15-3.19-.69Z" style="fill:#f9c18a"/><path d="M153.66 19.94c-.39-.8.33-1.81 1.61-2.25 1.28-.44 2.64-.15 3.04.66.39.8-.33 1.81-1.61 2.25-1.28.44-2.64.15-3.04-.66Z" style="fill:#fac48f"/><path d="M153.78 19.9c-.37-.76.31-1.72 1.53-2.13 1.22-.42 2.51-.14 2.88.62.37.76-.31 1.72-1.53 2.13-1.22.42-2.51.14-2.88-.62Z" style="fill:#fac795"/><path d="M153.89 19.87c-.35-.72.29-1.63 1.45-2.02 1.15-.4 2.38-.13 2.73.59.35.72-.29 1.63-1.45 2.02-1.15.4-2.38.13-2.73-.59Z" style="fill:#faca9b"/><path d="M154.01 19.83c-.33-.68.28-1.54 1.37-1.91 1.09-.37 2.24-.12 2.58.56.33.68-.28 1.54-1.37 1.91-1.09.37-2.24.12-2.58-.56Z" style="fill:#facd9f"/><path d="M154.12 19.8c-.31-.64.26-1.44 1.29-1.8 1.03-.35 2.11-.12 2.43.52.31.64-.26 1.44-1.29 1.8-1.03.35-2.11.12-2.43-.52Z" style="fill:#fbcfa5"/><path d="M154.24 19.76c-.29-.6.25-1.35 1.21-1.68s1.98-.11 2.27.49c.29.6-.25 1.35-1.21 1.68-.96.33-1.98.11-2.27-.49Z" style="fill:#fbd2aa"/><path d="M154.35 19.73c-.27-.56.23-1.26 1.13-1.57.9-.31 1.85-.1 2.12.46s-.23 1.26-1.13 1.57c-.9.31-1.85.1-2.12-.46Z" style="fill:#fbd5af"/><path d="M154.46 19.69c-.26-.52.21-1.17 1.04-1.46.83-.28 1.71-.09 1.97.43s-.21 1.17-1.04 1.46c-.83.28-1.71.09-1.97-.43Z" style="fill:#fcd7b5"/><path d="M154.58 19.65c-.23-.48.2-1.08.96-1.34.77-.26 1.58-.09 1.82.39s-.2 1.08-.96 1.34c-.77.26-1.58.09-1.82-.39Z" style="fill:#fcdbb9"/><path d="M154.69 19.62c-.22-.44.18-.99.88-1.23s1.45-.08 1.66.36c.22.44-.18.99-.88 1.23s-1.45.08-1.66-.36Z" style="fill:#fcddbf"/><path d="M154.81 19.58c-.2-.4.16-.9.8-1.12.64-.22 1.31-.07 1.51.33.2.4-.16.9-.8 1.12s-1.31.07-1.51-.33Z" style="fill:#fce0c5"/><path d="M154.92 19.55c-.18-.36.15-.81.72-1.01.57-.2 1.18-.07 1.36.29.18.36-.15.81-.72 1.01-.57.2-1.18.06-1.36-.29Z" style="fill:#fde3c9"/><path d="M155.04 19.51c-.16-.32.13-.72.64-.89.51-.17 1.05-.06 1.21.26.16.32-.13.72-.64.89-.51.17-1.05.06-1.2-.26Z" style="fill:#fde5cf"/><path d="M155.15 19.48c-.14-.28.11-.63.56-.78.45-.15.92-.05 1.05.23.14.28-.11.63-.56.78-.45.15-.92.05-1.05-.23Z" style="fill:#fde8d3"/><path d="M155.27 19.44c-.12-.24.1-.54.48-.67s.78-.04.9.19c.12.24-.1.54-.48.67s-.78.04-.9-.19Z" style="fill:#fdead9"/><path d="M155.38 19.41c-.1-.2.08-.45.4-.55.32-.11.65-.04.75.16.1.2-.08.45-.4.55-.32.11-.65.04-.75-.16Z" style="fill:#fdedde"/><path d="M155.5 19.37c-.08-.16.06-.35.32-.44.25-.09.52-.03.6.13.08.16-.06.35-.32.44-.25.09-.52.03-.6-.13Z" style="fill:#fdf0e3"/><path d="M155.61 19.34c-.06-.12.05-.26.24-.33.19-.06.38-.02.44.1.06.12-.05.26-.24.33-.19.06-.39.02-.44-.1Z" style="fill:#fff2e8"/></g><path class="cls-29" d="M8.95 60.12c.31 5.78 3.75 8.67 10.3 8.67 7.23 0 10.84-3.01 10.84-9.03 0-3.01-1.61-5.68-4.84-8-.39-.27-3.38-2.3-8.99-6.11-3.23-2.66-4.84-5.72-4.84-9.2 0-6.16 2.57-11.21 7.71-15.18 4.85-3.74 10.71-5.61 17.57-5.61 8.1 0 12.15 1.64 12.15 4.92 0 2.24-1.82 4.47-5.46 6.71-2.26-3.74-5.93-5.61-11.03-5.61-6.21 0-9.31 2.47-9.31 7.41 0 2.02 1.99 4.57 5.97 7.67 2.84 1.95 5.68 3.9 8.51 5.85 3.37 3.01 5.06 6.43 5.06 10.26 0 6.29-2.97 11.62-8.91 16.01-5.6 4.14-11.92 6.21-18.96 6.21-3.03 0-5.99-.45-8.88-1.36-3.91-1.24-5.86-2.98-5.86-5.21 0-3.28 2.98-6.07 8.95-8.37ZM81.98 28.84c2.3-.62 4.68-.93 7.13-.93 4.17 0 6.26 1.37 6.26 4.12 0 1.51-.29 3.3-.87 5.38l-1.49 5.31c-2.26 8.04-3.38 14.9-3.38 20.59 0 3.19.63 5.97 1.89 8.34-2.18 1.68-4.65 2.52-7.39 2.52-5.12 0-7.68-2.57-7.68-7.71 0-2.77.34-6.08 1.02-9.93-6.6 12.07-13.23 18.1-19.9 18.1-5.12 0-7.68-2.38-7.68-7.14 0-3.9 1.02-9.66 3.07-17.3 2.05-7.64 3.07-13.41 3.07-17.3 0-1.2-.25-2.34-.76-3.42 3.23-1.04 6.03-1.56 8.41-1.56 3.71 0 5.57 1.41 5.57 4.22 0 .95-.34 2.79-1.02 5.51-3.47 13.97-5.2 22.47-5.2 25.51 0 1.22.4 1.83 1.2 1.83 2.4 0 6.11-4.83 11.13-14.48 4.83-9.28 7.24-15.49 7.24-18.63 0-.84-.21-1.85-.62-3.02ZM112.18 55.04c-.22 1.77-.33 3.25-.33 4.45 0 5.6 2.47 8.4 7.42 8.4 4.58 0 9.87-2.16 15.86-6.48.61 1.15.91 2.17.91 3.06 0 3.21-2.8 5.81-8.41 7.8-4.39 1.57-8.68 2.36-12.88 2.36-11.4 0-17.1-4.54-17.1-13.62 0-8.33 2.85-15.86 8.55-22.62 6.14-7.31 13.64-10.96 22.52-10.96 7.03 0 10.55 2.72 10.55 8.17 0 6.2-2.94 11.07-8.81 14.61-4.97 3.03-11.07 4.64-18.3 4.82Zm.69-5.75c9.56-.15 14.34-3.87 14.34-11.16 0-3.1-1.2-4.65-3.6-4.65-4.58 0-8.16 5.27-10.73 15.81ZM159.88 45.54c6.53-12.07 13.16-18.1 19.9-18.1 5.12 0 7.68 2.37 7.68 7.11 0 3.45-.89 8.54-2.67 15.26-1.78 6.72-2.67 11.81-2.67 15.26 0 2.72.73 4.95 2.18 6.68-2.79 1.62-5.54 2.42-8.26 2.42-4.56 0-6.84-2-6.84-6.01 0-2.97.49-6.64 1.46-11.03 2.45-11.05 3.67-17.13 3.67-18.23 0-1.22-.41-1.83-1.24-1.83-2.43 0-6.14 4.83-11.13 14.48-4.8 9.28-7.2 15.5-7.2 18.67 0 .84.21 1.85.62 3.02-2.47.62-4.86.93-7.17.93-4.17 0-6.26-1.37-6.26-4.12 0-1.37.3-3.17.91-5.38l1.46-5.31c3.42-12.49 5.13-21.3 5.13-26.44 0-1.22-.24-2.37-.73-3.45 3.23-1.04 6.02-1.56 8.37-1.56 3.71 0 5.57 1.41 5.57 4.22 0 1.55-.92 6.02-2.77 13.42ZM208.49 74.6c-5.19 0-9.32-1.46-12.39-4.38-3.07-2.92-4.6-6.76-4.6-11.52 0-7.55 2.55-14.49 7.64-20.82 5.55-6.95 12.32-10.43 20.3-10.43 5.05 0 9.11 1.51 12.19 4.52 3.01 2.92 4.51 6.71 4.51 11.36 0 7.44-2.52 14.36-7.57 20.76-5.53 7.02-12.23 10.53-20.09 10.53Zm2.52-6.71c3.81 0 6.82-3.48 9.02-10.43 1.62-5.11 2.44-10.02 2.44-14.71 0-5.71-1.87-8.57-5.6-8.57-3.93 0-7.01 3.47-9.24 10.4-1.63 5.05-2.44 9.96-2.44 14.75 0 5.71 1.94 8.57 5.82 8.57Z"/><path class="cls-30" d="m112.95 103.52-2.73 2.01 1.04 3.25-2.73-2.01-2.73 2.01 1.04-3.25-2.73-2.01h3.37l1.04-3.25 1.04 3.25h3.37Zm-13.52 0-2.73 2.01 1.04 3.25-2.73-2.01-2.73 2.01 1.04-3.25-2.73-2.01h3.37l1.04-3.25 1.04 3.25h3.37Zm-13.53 0-2.73 2.01 1.04 3.25-2.73-2.01-2.73 2.01 1.04-3.25-2.73-2.01h3.37l1.04-3.25 1.04 3.25h3.37Zm-13.53 0-2.73 2.01 1.04 3.25-2.73-2.01-2.73 2.01 1.04-3.25-2.73-2.01h3.37l1.04-3.25 1.04 3.25h3.37Zm-13.52 0-2.73 2.01 1.04 3.25-2.73-2.01-2.73 2.01 1.04-3.25-2.73-2.01h3.37l1.04-3.25 1.04 3.25h3.37Z"/><path class="cls-29" d="M50.75 83.32v3.6h5.43v-3.6c0-.51.11-.9.34-1.16.23-.26.53-.39.91-.39s.68.13.92.39c.24.25.36.64.36 1.16v9.9c0 .52-.12.91-.36 1.17-.24.26-.54.39-.92.39s-.68-.13-.91-.39c-.23-.26-.34-.65-.34-1.17V89h-5.43v4.22c0 .52-.12.91-.36 1.17-.24.26-.54.39-.92.39s-.68-.13-.91-.39c-.23-.26-.34-.65-.34-1.17v-9.9c0-.51.11-.9.33-1.16.23-.26.53-.39.92-.39s.68.13.92.39c.24.25.36.64.36 1.16Z"/><path class="cls-30" d="M66.99 81.78c1.29 0 2.39.27 3.31.8a5.08 5.08 0 0 1 2.1 2.25c.48.97.71 2.11.71 3.43 0 .97-.13 1.85-.39 2.65-.26.79-.65 1.48-1.17 2.06-.52.58-1.16 1.03-1.92 1.34s-1.63.46-2.6.46-1.84-.16-2.61-.47c-.77-.32-1.41-.77-1.93-1.35-.51-.58-.9-1.27-1.17-2.08-.26-.81-.39-1.69-.39-2.63s.13-1.85.41-2.66c.28-.81.68-1.49 1.2-2.06.52-.57 1.15-1 1.9-1.29.75-.3 1.59-.45 2.54-.45Zm3.57 6.46c0-.92-.15-1.72-.44-2.39-.29-.67-.71-1.18-1.26-1.53-.54-.35-1.17-.52-1.87-.52-.5 0-.97.1-1.4.29-.42.19-.79.47-1.1.83-.3.37-.55.83-.73 1.41-.18.57-.26 1.2-.26 1.91s.09 1.36.26 1.94c.18.58.43 1.06.75 1.44.33.38.7.66 1.12.85.42.19.89.28 1.39.28.64 0 1.24-.16 1.77-.49.54-.33.97-.83 1.29-1.51.32-.68.48-1.52.48-2.51Z"/><path class="cls-29" d="M83.45 84.09H80.7v9.13c0 .53-.12.92-.35 1.17-.23.25-.53.38-.9.38s-.68-.13-.92-.39c-.23-.26-.35-.65-.35-1.17v-9.13h-2.75c-.43 0-.75-.09-.96-.28-.21-.19-.31-.45-.31-.76s.11-.58.32-.77c.22-.19.54-.28.95-.28h8c.44 0 .76.1.97.29.21.19.32.45.32.76s-.11.57-.32.76c-.21.19-.54.28-.97.28ZM94.52 83.96h-5.67v3.08h5.22c.38 0 .67.09.86.27.19.17.29.4.29.69s-.09.52-.28.7c-.19.18-.48.27-.87.27h-5.22v3.57h5.87c.4 0 .69.09.89.28.2.18.31.43.31.74s-.1.54-.31.73c-.2.18-.49.27-.89.27h-6.84c-.55 0-.94-.12-1.19-.37-.24-.25-.36-.64-.36-1.19v-9.44c0-.37.05-.66.16-.89.11-.23.27-.4.5-.51.23-.11.53-.16.88-.16h6.65c.4 0 .7.09.89.27.2.18.3.41.3.7s-.1.54-.3.72c-.19.18-.49.27-.89.27ZM100.49 83.32v9.14h5.1c.41 0 .72.1.93.3.22.2.33.45.33.75s-.11.56-.32.75c-.21.19-.53.28-.94.28h-6.08c-.55 0-.94-.12-1.19-.37-.24-.25-.36-.64-.36-1.19v-9.67c0-.51.11-.9.34-1.16.23-.26.53-.39.91-.39s.69.13.92.39c.24.25.36.64.36 1.16ZM118.06 90.79c0 .76-.19 1.44-.58 2.05-.39.61-.95 1.08-1.7 1.42-.75.34-1.63.51-2.65.51-1.23 0-2.24-.23-3.04-.7-.57-.34-1.03-.79-1.38-1.35-.35-.57-.53-1.11-.53-1.65a1.094 1.094 0 0 1 1.12-1.12c.27 0 .49.09.67.26.19.17.35.43.48.76.16.4.33.73.51 1 .19.27.45.49.78.67.33.17.77.26 1.31.26.75 0 1.35-.17 1.81-.52.47-.35.7-.79.7-1.32 0-.42-.13-.75-.38-1.01s-.57-.46-.97-.6c-.4-.14-.93-.28-1.59-.44-.89-.21-1.64-.46-2.25-.74-.6-.29-1.08-.67-1.43-1.16-.35-.49-.53-1.1-.53-1.83s.19-1.31.56-1.84c.37-.54.91-.95 1.62-1.23.71-.29 1.54-.44 2.49-.44.76 0 1.42.1 1.98.29.56.19 1.02.44 1.39.76.37.31.63.65.81.99.17.35.25.69.25 1.02 0 .3-.11.58-.32.82-.21.24-.47.36-.79.36-.29 0-.51-.07-.66-.21-.15-.15-.31-.39-.48-.72-.23-.47-.5-.84-.81-1.11-.32-.27-.83-.4-1.53-.4-.65 0-1.18.15-1.58.44-.4.29-.59.63-.59 1.04 0 .25.07.47.2.65.13.18.32.34.56.47.24.13.48.23.72.31.24.07.64.18 1.2.33.7.17 1.33.35 1.9.55.57.2 1.05.44 1.45.73.4.29.71.65.93 1.09.23.43.34.97.34 1.6Z"/></svg>